<?xml version="1.0" encoding="UTF-8" standalone="no"?>
<!DOCTYPE svg PUBLIC "-//W3C//DTD SVG 1.1//EN" "http://www.w3.org/Graphics/SVG/1.1/DTD/svg11.dtd">
<svg width="100%" height="100%" viewBox="0 0 1366 768" version="1.1" xmlns="http://www.w3.org/2000/svg" xmlns:xlink="http://www.w3.org/1999/xlink" xml:space="preserve" xmlns:serif="http://www.serif.com/" style="fill-rule:evenodd;clip-rule:evenodd;stroke-linejoin:round;stroke-miterlimit:1.41421;">
    <path d="M668.57,160.334L724.728,305.242C726.529,309.89 729.632,313.921 733.665,316.851C737.698,319.781 742.49,321.487 747.468,321.764L902.637,330.394L782.175,428.582C778.311,431.732 775.436,435.928 773.896,440.669C772.356,445.41 772.214,450.495 773.489,455.314L813.231,605.556L682.624,521.332C678.434,518.63 673.555,517.193 668.57,517.193C663.585,517.193 658.705,518.63 654.516,521.332L523.909,605.556L563.651,455.314C564.926,450.495 564.784,445.41 563.244,440.669C561.703,435.928 558.829,431.732 554.965,428.582L434.503,330.394L589.672,321.764C594.65,321.487 599.442,319.781 603.475,316.851C607.508,313.921 610.611,309.89 612.412,305.242L668.57,160.334Z" style="fill:rgb(246,255,0);"/>
    <g id="shinings">
        <g transform="matrix(0.669258,-0.0865991,0.0865991,0.669258,230.46,152.283)">
            <path d="M679.827,304.595C679.827,304.595 683.978,341.645 694.432,349.982C711.506,363.598 729.534,360.436 729.534,360.436C729.534,360.436 706.316,356.405 698.267,344.46C689.774,331.855 679.805,304.264 679.827,304.595Z" style="fill:white;"/>
        </g>
        <g transform="matrix(-0.604529,0.796583,-0.796583,-0.604529,1365.19,160.376)">
            <path d="M687.348,307.138C687.348,307.138 683.978,341.645 694.432,349.982C711.506,363.598 737.354,360.663 737.354,360.663C737.354,360.663 706.316,356.405 698.267,344.46C689.774,331.855 687.326,306.807 687.348,307.138Z" style="fill:white;"/>
        </g>
    </g>
</svg>
